<svg width="1080" height="1080" viewBox="0 0 1080 1080" fill="none" xmlns="http://www.w3.org/2000/svg">
<rect width="1080" height="1080" fill="white"/>
<path d="M251.154 761.206C268.162 761.206 280.961 764.164 289.55 770.081C298.139 775.998 302.434 784.931 302.434 796.878C302.434 799.709 302.15 802.922 301.583 806.518C301.016 810.085 300.421 813.199 299.798 815.861L287.296 868.944C285.964 874.352 285.298 878.372 285.298 881.005C285.298 883.496 285.78 885.563 286.744 887.205C287.736 888.847 289.564 889.668 292.229 889.668C293.448 889.668 294.638 889.442 295.801 888.989L299.542 887.8L295.928 904.914C294.256 905.791 292.002 906.556 289.167 907.207C286.333 907.887 283.852 908.226 281.726 908.226C276.142 908.226 271.705 906.754 268.417 903.81C265.157 900.837 263.527 896.42 263.527 890.56C263.527 889.767 263.612 889.06 263.782 888.437L262.974 887.8C257.39 895.217 250.785 900.483 243.16 903.597C235.563 906.683 226.534 908.226 216.074 908.226C202.779 908.226 192.276 904.871 184.566 898.162C176.855 891.424 173 881.557 173 868.562C173 855.029 177.691 844.413 187.074 836.712C196.486 829.011 217.803 823.958 251.026 821.551C261.033 820.843 268.247 819.102 272.669 816.328C277.12 813.553 279.345 808.132 279.345 800.063C279.345 793.863 276.751 789.22 271.564 786.134C266.376 783.048 259.53 781.505 251.026 781.505C240.934 781.505 232.444 783.671 225.556 788.002C218.696 792.334 214.6 798.619 213.267 806.858H190.178C192.219 792.334 198.768 781.094 209.823 773.139C220.907 765.183 234.684 761.206 251.154 761.206ZM272.542 833.102C267.042 836.839 257.872 839.274 245.031 840.407C225.811 842.105 212.856 845.05 206.166 849.24C199.476 853.43 196.131 859.729 196.131 868.137C196.131 874.253 198.569 879.066 203.445 882.576C208.321 886.059 214.345 887.8 221.516 887.8C231.523 887.8 239.843 885.959 246.476 882.279C253.138 878.598 258.368 873.757 262.166 867.755C265.993 861.725 269.636 850.174 273.094 833.102H272.542ZM411.41 761.206C421.501 761.206 429.453 763.371 435.264 767.703C441.075 772.035 444.902 778.263 446.745 786.389C451.989 778.971 458.948 772.927 467.622 768.255C476.297 763.556 485.425 761.206 495.006 761.206C506.94 761.206 516.422 763.994 523.452 769.572C530.511 775.121 534.04 782.85 534.04 792.759C534.04 796.382 533.7 800.304 533.02 804.522C532.368 808.712 531.39 814.091 530.086 820.659L512.269 904.914H489.138L508.272 818.239C509.69 811.699 510.484 807.197 510.654 804.734C510.852 802.243 510.951 800.87 510.951 800.615C510.951 795.123 508.868 790.564 504.701 786.941C500.534 783.317 495.431 781.505 489.393 781.505C481.598 781.505 473.731 784.336 465.794 789.998C457.885 795.661 452.357 801.507 449.211 807.537C446.064 813.539 443.471 821.311 441.43 830.851L425.484 904.914H402.353L418.596 827.666C420.353 819.003 421.629 812.591 422.423 808.429C423.216 804.267 423.613 801.394 423.613 799.808C423.613 794.061 421.912 789.574 418.511 786.346C415.109 783.119 410.262 781.505 403.969 781.505C395.634 781.505 387.527 784.52 379.647 790.55C371.766 796.552 366.252 802.016 363.106 806.943C359.959 811.84 357.153 819.598 354.687 830.214L338.741 904.914H315.61L345.502 764.391H367.018L361.83 785.327L362.383 785.879C368.846 777.923 376.287 771.822 384.707 767.576C393.126 763.329 402.027 761.206 411.41 761.206ZM624.275 761.206C641.283 761.206 654.082 764.164 662.671 770.081C671.261 775.998 675.555 784.931 675.555 796.878C675.555 799.709 675.272 802.922 674.705 806.518C674.138 810.085 673.543 813.199 672.919 815.861L660.418 868.944C659.085 874.352 658.419 878.372 658.419 881.005C658.419 883.496 658.901 885.563 659.865 887.205C660.857 888.847 662.686 889.668 665.35 889.668C666.569 889.668 667.76 889.442 668.922 888.989L672.664 887.8L669.05 904.914C667.377 905.791 665.123 906.556 662.289 907.207C659.454 907.887 656.974 908.226 654.848 908.226C649.263 908.226 644.827 906.754 641.538 903.81C638.279 900.837 636.649 896.42 636.649 890.56C636.649 889.767 636.734 889.06 636.904 888.437L636.096 887.8C630.511 895.217 623.906 900.483 616.281 903.597C608.684 906.683 599.655 908.226 589.195 908.226C575.9 908.226 565.398 904.871 557.687 898.162C549.977 891.424 546.121 881.557 546.121 868.562C546.121 855.029 550.813 844.413 560.196 836.712C569.607 829.011 590.924 823.958 624.147 821.551C634.154 820.843 641.368 819.102 645.791 816.328C650.241 813.553 652.466 808.132 652.466 800.063C652.466 793.863 649.873 789.22 644.685 786.134C639.497 783.048 632.652 781.505 624.147 781.505C614.056 781.505 605.566 783.671 598.677 788.002C591.817 792.334 587.721 798.619 586.389 806.858H563.3C565.341 792.334 571.889 781.094 582.945 773.139C594.028 765.183 607.805 761.206 624.275 761.206ZM645.663 833.102C640.164 836.839 630.993 839.274 618.152 840.407C598.932 842.105 585.978 845.05 579.288 849.24C572.598 853.43 569.253 859.729 569.253 868.137C569.253 874.253 571.691 879.066 576.566 882.576C581.442 886.059 587.466 887.8 594.638 887.8C604.644 887.8 612.964 885.959 619.598 882.279C626.259 878.598 631.489 873.757 635.288 867.755C639.115 861.725 642.757 850.174 646.216 833.102H645.663ZM788.656 760.781C790.952 760.781 792.369 760.923 792.908 761.206L787.465 785.879C786.927 785.709 785.112 785.624 782.022 785.624C771.194 785.624 762.959 787.238 757.318 790.465C751.705 793.693 745.936 798.647 740.012 805.329C734.087 812.01 729.126 824.411 725.129 842.53L711.863 904.914H688.731L718.071 764.391H739.884L733.123 794.5H733.634C737.347 787.875 741.5 782.241 746.092 777.598C750.713 772.927 755.688 769.274 761.017 766.641C764.39 764.858 767.792 763.57 771.222 762.777C774.68 761.984 778.366 761.404 782.278 761.036C783.61 760.951 784.687 760.894 785.509 760.866C786.36 760.809 787.408 760.781 788.656 760.781ZM855.35 761.206C872.358 761.206 885.157 764.164 893.746 770.081C902.335 775.998 906.63 784.931 906.63 796.878C906.63 799.709 906.347 802.922 905.78 806.518C905.213 810.085 904.617 813.199 903.994 815.861L891.493 868.944C890.16 874.352 889.494 878.372 889.494 881.005C889.494 883.496 889.976 885.563 890.94 887.205C891.932 888.847 893.76 889.668 896.425 889.668C897.644 889.668 898.835 889.442 899.997 888.989L903.739 887.8L900.124 904.914C898.452 905.791 896.198 906.556 893.364 907.207C890.529 907.887 888.048 908.226 885.922 908.226C880.338 908.226 875.902 906.754 872.613 903.81C869.353 900.837 867.723 896.42 867.723 890.56C867.723 889.767 867.808 889.06 867.979 888.437L867.171 887.8C861.586 895.217 854.981 900.483 847.356 903.597C839.759 906.683 830.73 908.226 820.27 908.226C806.975 908.226 796.472 904.871 788.762 898.162C781.052 891.424 777.196 881.557 777.196 868.562C777.196 855.029 781.888 844.413 791.271 836.712C800.682 829.011 821.999 823.958 855.222 821.551C865.229 820.843 872.443 819.102 876.865 816.328C881.316 813.553 883.541 808.132 883.541 800.063C883.541 793.863 880.947 789.22 875.76 786.134C870.572 783.048 863.726 781.505 855.222 781.505C845.131 781.505 836.641 783.671 829.752 788.002C822.892 792.334 818.796 798.619 817.464 806.858H794.375C796.416 792.334 802.964 781.094 814.019 773.139C825.103 765.183 838.88 761.206 855.35 761.206ZM876.738 833.102C871.238 836.839 862.068 839.274 849.227 840.407C830.007 842.105 817.053 845.05 810.363 849.24C803.673 853.43 800.328 859.729 800.328 868.137C800.328 874.253 802.766 879.066 807.641 882.576C812.517 886.059 818.541 887.8 825.713 887.8C835.719 887.8 844.039 885.959 850.673 882.279C857.334 878.598 862.564 873.757 866.363 867.755C870.19 861.725 873.832 850.174 877.291 833.102H876.738Z" fill="black"/>
<path d="M456.99 566.359H422.121L522.973 291.7H557.305L658.156 566.359H623.288L582.25 450.755L541.212 335.152H539.066L456.99 566.359ZM469.865 459.07H540.139H610.413V488.574H469.865V459.07ZM540.139 687.058C511.618 687.058 484.438 682.722 458.599 674.05C432.85 665.377 409.202 653.128 387.655 637.303C366.197 621.568 347.556 602.926 331.731 581.379C315.995 559.921 303.791 536.318 295.118 510.569C286.446 484.73 282.11 457.55 282.11 429.029C282.11 400.508 286.446 373.373 295.118 347.624C303.791 321.785 315.995 298.137 331.731 276.679C347.556 255.132 366.197 236.491 387.655 220.755C409.202 204.93 432.85 192.681 458.599 184.009C484.438 175.336 511.618 171 540.139 171C568.66 171 595.795 175.336 621.544 184.009C647.383 192.681 671.031 204.93 692.489 220.755C714.036 236.491 732.677 255.132 748.413 276.679C764.238 298.137 776.487 321.785 785.159 347.624C793.832 373.373 798.168 400.508 798.168 429.029C798.168 457.55 793.832 484.73 785.159 510.569C776.487 536.318 764.238 559.921 748.413 581.379C732.677 602.926 714.036 621.568 692.489 637.303C671.031 653.128 647.383 665.377 621.544 674.05C595.795 682.722 568.66 687.058 540.139 687.058ZM540.139 655.945C565.262 655.945 589.134 652.1 611.754 644.411C634.463 636.812 655.251 626.038 674.116 612.09C693.07 598.232 709.476 581.871 723.334 563.006C737.282 544.052 748.055 523.264 755.655 500.644C763.255 477.935 767.054 454.063 767.054 429.029C767.054 403.906 763.255 380.034 755.655 357.414C748.055 334.705 737.282 313.917 723.334 295.052C709.476 276.098 693.07 259.692 674.116 245.834C655.251 231.886 634.463 221.113 611.754 213.513C589.134 205.913 565.262 202.114 540.139 202.114C515.015 202.114 491.099 205.913 468.39 213.513C445.77 221.113 424.982 231.886 406.028 245.834C387.163 259.692 370.757 276.098 356.809 295.052C342.951 313.917 332.222 334.705 324.623 357.414C317.023 380.034 313.223 403.906 313.223 429.029C313.223 454.063 317.023 477.935 324.623 500.644C332.222 523.264 342.951 544.052 356.809 563.006C370.757 581.871 387.163 598.232 406.028 612.09C424.982 626.038 445.77 636.812 468.39 644.411C491.099 652.1 515.015 655.945 540.139 655.945Z" fill="black"/>
<path d="M944.154 687.058C954.64 687.058 963.403 690.65 970.442 697.834C977.481 704.996 981 713.697 981 723.935C981 734.256 977.439 742.977 970.318 750.099C963.196 757.22 954.475 760.781 944.154 760.781C933.854 760.781 925.133 757.231 917.991 750.13C910.848 743.008 907.277 734.277 907.277 723.935C907.277 713.552 910.838 704.811 917.96 697.71C925.102 690.609 933.833 687.058 944.154 687.058ZM913.036 723.935C913.036 732.729 916.009 740.191 921.954 746.321C927.919 752.452 935.319 755.517 944.154 755.517C952.927 755.517 960.296 752.462 966.262 746.352C972.248 740.242 975.241 732.77 975.241 723.935C975.241 715.101 972.258 707.628 966.293 701.518C960.327 695.387 952.917 692.322 944.061 692.322C935.288 692.322 927.919 695.387 921.954 701.518C916.009 707.628 913.036 715.101 913.036 723.935ZM947.529 702.633C951.823 702.633 955.136 703.582 957.468 705.481C959.801 707.36 960.967 710.332 960.967 714.399C960.967 717.66 960.079 720.282 958.304 722.263C956.55 724.245 953.876 725.587 950.285 726.288L962.98 745.207H956.818L944.866 726.288H936.011V745.207H930.778V702.633H947.529ZM943.752 721.861C948.561 721.861 951.761 721.241 953.35 720.003C954.96 718.744 955.765 716.876 955.765 714.399C955.765 711.984 954.919 710.167 953.226 708.949C951.554 707.711 949.139 707.091 945.981 707.091H936.011V721.861H943.752Z" fill="black"/>
</svg>
